<?xml version="1.0" encoding="utf-8"?>
<!-- Generator: Adobe Illustrator 16.0.0, SVG Export Plug-In . SVG Version: 6.00 Build 0)  -->
<!DOCTYPE svg PUBLIC "-//W3C//DTD SVG 1.1 Tiny//EN" "http://www.w3.org/Graphics/SVG/1.1/DTD/svg11-tiny.dtd">
<svg version="1.1" baseProfile="tiny" id="Camada_1"
	 xmlns="http://www.w3.org/2000/svg" xmlns:xlink="http://www.w3.org/1999/xlink" x="0px" y="0px" width="131.681px" height="50px"
	 viewBox="0 0 131.681 50" xml:space="preserve">
<g>
	<g>
		<path fill="#424243" d="M72.284,30.145h-6.675v-2.049c0-0.956-0.085-1.564-0.256-1.827c-0.17-0.262-0.455-0.393-0.854-0.393
			c-0.433,0-0.76,0.177-0.982,0.53c-0.222,0.354-0.333,0.888-0.333,1.606c0,0.922,0.125,1.617,0.374,2.084
			c0.238,0.467,0.916,1.03,2.031,1.689c3.2,1.899,5.214,3.457,6.045,4.676c0.831,1.218,1.247,3.181,1.247,5.89
			c0,1.969-0.23,3.42-0.691,4.354s-1.353,1.716-2.672,2.348C68.198,49.685,66.662,50,64.909,50c-1.923,0-3.565-0.364-4.925-1.093
			c-1.36-0.728-2.251-1.655-2.672-2.782c-0.421-1.127-0.632-2.727-0.632-4.798v-1.81h6.676v3.363c0,1.036,0.094,1.701,0.281,1.998
			c0.188,0.296,0.521,0.443,0.999,0.443s0.833-0.188,1.067-0.563s0.35-0.933,0.35-1.673c0-1.628-0.222-2.691-0.666-3.192
			c-0.455-0.501-1.576-1.338-3.363-2.511c-1.787-1.184-2.971-2.042-3.551-2.577c-0.58-0.535-1.061-1.274-1.442-2.22
			c-0.381-0.944-0.572-2.151-0.572-3.619c0-2.117,0.27-3.665,0.811-4.644c0.541-0.979,1.415-1.744,2.621-2.296
			c1.207-0.552,2.664-0.828,4.371-0.828c1.866,0,3.457,0.302,4.771,0.905s2.186,1.363,2.612,2.279
			c0.427,0.916,0.64,2.473,0.64,4.669V30.145z"/>
		<path fill="#424243" d="M82.323,21.779V49.42h-7.188V21.779H82.323z"/>
		<path fill="#424243" d="M99.687,21.779v5.531h-4.269V49.42H88.23V27.311h-4.251v-5.531H99.687z"/>
		<path fill="#424243" d="M101.326,21.779h11.984v5.531h-4.797v5.241h4.49v5.259h-4.49v6.077h5.275v5.532h-12.463V21.779z"/>
		<path fill="#424243" d="M131.083,30.145h-6.675v-2.049c0-0.956-0.085-1.564-0.256-1.827c-0.171-0.262-0.456-0.393-0.854-0.393
			c-0.433,0-0.761,0.177-0.982,0.53c-0.222,0.354-0.333,0.888-0.333,1.606c0,0.922,0.125,1.617,0.375,2.084
			c0.238,0.467,0.915,1.03,2.031,1.689c3.199,1.899,5.214,3.457,6.045,4.676c0.831,1.218,1.246,3.181,1.246,5.89
			c0,1.969-0.23,3.42-0.69,4.354c-0.462,0.934-1.353,1.716-2.673,2.348S125.461,50,123.708,50c-1.924,0-3.565-0.364-4.926-1.093
			c-1.36-0.728-2.25-1.655-2.672-2.782c-0.421-1.127-0.631-2.727-0.631-4.798v-1.81h6.675v3.363c0,1.036,0.094,1.701,0.282,1.998
			c0.188,0.296,0.521,0.443,0.998,0.443c0.479,0,0.834-0.188,1.067-0.563s0.35-0.933,0.35-1.673c0-1.628-0.222-2.691-0.665-3.192
			c-0.456-0.501-1.577-1.338-3.364-2.511c-1.786-1.184-2.97-2.042-3.551-2.577c-0.58-0.535-1.062-1.274-1.442-2.22
			c-0.382-0.944-0.572-2.151-0.572-3.619c0-2.117,0.271-3.665,0.812-4.644c0.54-0.979,1.413-1.744,2.62-2.296
			c1.206-0.552,2.663-0.828,4.371-0.828c1.866,0,3.457,0.302,4.771,0.905s2.186,1.363,2.612,2.279
			c0.427,0.916,0.64,2.473,0.64,4.669V30.145z"/>
	</g>
	<g>
		<path fill="#231F20" d="M56.352,15.385l0.634-1.6c0.324,0.238,0.729,0.436,1.212,0.596c0.484,0.159,0.917,0.239,1.3,0.239
			c0.678,0,1.223-0.185,1.634-0.556c0.411-0.371,0.617-0.843,0.617-1.417c0-0.429-0.115-0.827-0.344-1.195
			c-0.229-0.368-0.804-0.77-1.725-1.204L58.655,9.77c-0.869-0.406-1.476-0.887-1.821-1.443c-0.345-0.557-0.517-1.226-0.517-2.008
			c0-0.95,0.336-1.738,1.008-2.364c0.672-0.625,1.536-0.938,2.59-0.938c1.408,0,2.388,0.229,2.938,0.687l-0.513,1.513
			c-0.232-0.168-0.585-0.331-1.061-0.487c-0.475-0.157-0.916-0.235-1.321-0.235c-0.591,0-1.056,0.168-1.395,0.504
			c-0.339,0.336-0.508,0.768-0.508,1.295c0,0.325,0.061,0.62,0.183,0.887c0.122,0.267,0.291,0.49,0.508,0.669
			s0.662,0.432,1.334,0.756L61.124,9.1c0.869,0.412,1.479,0.903,1.83,1.473c0.351,0.571,0.526,1.297,0.526,2.178
			c0,0.956-0.384,1.768-1.152,2.434c-0.768,0.667-1.795,1-3.081,1C58.116,16.185,57.151,15.918,56.352,15.385z"/>
		<path fill="#231F20" d="M65.235,9.491c0-1.843,0.462-3.384,1.386-4.624c0.924-1.24,2.171-1.86,3.743-1.86
			c1.767,0,3.121,0.571,4.063,1.712c0.942,1.142,1.413,2.732,1.413,4.772c0,2.092-0.473,3.73-1.417,4.916s-2.298,1.778-4.059,1.778
			c-1.605,0-2.862-0.626-3.769-1.878C65.688,13.055,65.235,11.45,65.235,9.491z M67.061,9.491c0,1.46,0.288,2.68,0.865,3.659
			c0.576,0.98,1.39,1.469,2.438,1.469c1.188,0,2.093-0.449,2.716-1.347c0.623-0.898,0.935-2.159,0.935-3.781
			c0-3.28-1.217-4.92-3.65-4.92c-1.078,0-1.898,0.44-2.46,1.321C67.342,6.773,67.061,7.973,67.061,9.491z"/>
		<path fill="#231F20" d="M78.195,15.967V3.233h1.738v11.169h5.755v1.565H78.195z"/>
		<path fill="#231F20" d="M87.564,3.233h1.738v8.718c0,0.776,0.247,1.416,0.739,1.917c0.493,0.501,1.145,0.751,1.956,0.751
			c0.857,0,1.532-0.243,2.025-0.73c0.492-0.487,0.739-1.147,0.739-1.982V3.233h1.738v8.857c0,1.287-0.401,2.291-1.204,3.012
			c-0.803,0.722-1.896,1.083-3.281,1.083c-1.426,0-2.524-0.354-3.295-1.061s-1.156-1.721-1.156-3.042V3.233z"/>
		<path fill="#231F20" d="M107.592,3.702l-0.582,1.486c-0.557-0.405-1.432-0.608-2.626-0.608c-1.118,0-2.015,0.481-2.689,1.443
			c-0.676,0.962-1.013,2.202-1.013,3.72c0,1.449,0.346,2.624,1.038,3.525s1.587,1.352,2.682,1.352c1.194,0,2.112-0.423,2.756-1.269
			l0.956,1.33c-1.009,1.002-2.307,1.504-3.895,1.504c-1.663,0-2.973-0.6-3.929-1.799s-1.435-2.782-1.435-4.746
			c0-1.901,0.511-3.48,1.53-4.737c1.02-1.258,2.338-1.886,3.955-1.886C105.726,3.016,106.81,3.245,107.592,3.702z M102.22,19.922
			l-0.209-0.86c0.452,0,0.829-0.078,1.13-0.235c0.302-0.156,0.453-0.374,0.453-0.652c0-0.429-0.262-0.643-0.782-0.643v-1.035
			c0.573,0,1.02,0.163,1.338,0.487c0.318,0.324,0.479,0.721,0.479,1.19c0,0.545-0.212,0.972-0.635,1.282
			S102.979,19.922,102.22,19.922z"/>
		<path fill="#231F20" d="M117.7,15.967l-0.878-2.686h-4.737l-0.938,2.686h-1.947l5.172-12.908h0.461l4.798,12.908H117.7z
			 M117.266,0.39c-0.308,1.2-0.863,1.799-1.669,1.799c-0.365,0-0.767-0.111-1.204-0.334s-0.746-0.334-0.926-0.334
			c-0.411,0-0.725,0.223-0.938,0.669h-0.791c0.081-0.486,0.268-0.908,0.561-1.265c0.293-0.356,0.639-0.535,1.039-0.535
			c0.475,0,0.914,0.112,1.316,0.335c0.403,0.223,0.706,0.334,0.908,0.334c0.47,0,0.783-0.223,0.939-0.669H117.266z M114.519,6.397
			l-1.973,5.606h3.781L114.519,6.397z"/>
		<path fill="#231F20" d="M120.716,9.491c0-1.843,0.463-3.384,1.387-4.624c0.925-1.24,2.172-1.86,3.742-1.86
			c1.768,0,3.122,0.571,4.064,1.712c0.941,1.142,1.412,2.732,1.412,4.772c0,2.092-0.473,3.73-1.417,4.916s-2.298,1.778-4.06,1.778
			c-1.604,0-2.861-0.626-3.768-1.878C121.17,13.055,120.716,11.45,120.716,9.491z M122.542,9.491c0,1.46,0.288,2.68,0.864,3.659
			c0.577,0.98,1.39,1.469,2.438,1.469c1.188,0,2.094-0.449,2.717-1.347c0.622-0.898,0.934-2.159,0.934-3.781
			c0-3.28-1.216-4.92-3.65-4.92c-1.078,0-1.897,0.44-2.46,1.321C122.823,6.773,122.542,7.973,122.542,9.491z"/>
	</g>
	<path fill="#CA2027" d="M8.381,0C6.995,0.027,0,0.563,0,8.68V50h50V0H8.381z"/>
	<polygon fill="#861719" points="50,19.336 40.996,14.995 32.897,17.825 27.97,14.995 20.05,17.661 15.415,14.995 9.394,16.498 
		8.916,19.888 9.735,22.424 12.327,25.38 14.035,28.487 15.673,31.562 14.172,33.077 9.939,30.683 9.659,36.732 32.899,50 50,50 	
		"/>
	<g>
		<path fill="#FFFFFF" d="M17.955,31.421c0.024,1.573-0.384,2.918-1.225,4.034c-0.553,0.757-1.333,1.291-2.342,1.604
			c-0.54,0.168-1.17,0.252-1.891,0.252c-1.333,0-2.438-0.33-3.314-0.99c-0.732-0.541-1.312-1.276-1.738-2.207
			c-0.426-0.931-0.675-1.995-0.747-3.197l3.242-0.233c0.144,1.315,0.492,2.269,1.045,2.86c0.408,0.446,0.876,0.657,1.404,0.634
			c0.745-0.024,1.339-0.391,1.783-1.101c0.228-0.348,0.343-0.847,0.343-1.496c0-0.937-0.426-1.868-1.279-2.794
			c-0.673-0.637-1.681-1.592-3.026-2.866c-1.128-1.094-1.927-2.073-2.396-2.939c-0.504-0.974-0.756-2.031-0.756-3.172
			c0-2.055,0.69-3.612,2.071-4.669c0.853-0.637,1.91-0.955,3.17-0.955c1.213,0,2.251,0.27,3.116,0.811
			c0.672,0.42,1.215,1.008,1.63,1.765c0.414,0.756,0.663,1.627,0.748,2.612l-3.26,0.594c-0.096-0.924-0.36-1.645-0.792-2.162
			c-0.313-0.372-0.763-0.558-1.352-0.558c-0.624,0-1.098,0.276-1.422,0.829c-0.264,0.445-0.396,0.997-0.396,1.657
			c0,1.033,0.444,2.083,1.333,3.152c0.336,0.408,0.84,0.888,1.513,1.44c0.792,0.661,1.314,1.123,1.567,1.387
			c0.84,0.841,1.489,1.669,1.945,2.486c0.216,0.385,0.39,0.738,0.522,1.063C17.774,30.063,17.942,30.785,17.955,31.421z"/>
		<path fill="#FFFFFF" d="M25.099,14.185c1.501,0,2.777,0.528,3.828,1.585c1.05,1.057,1.576,2.329,1.576,3.818v12.319
			c0,1.501-0.528,2.776-1.585,3.828c-1.057,1.05-2.33,1.575-3.818,1.575c-1.501,0-2.774-0.528-3.818-1.585s-1.567-2.33-1.567-3.818
			V19.588c0-1.501,0.528-2.777,1.585-3.828C22.354,14.71,23.622,14.185,25.099,14.185z M26.954,19.516c0-0.541-0.189-1-0.567-1.378
			s-0.838-0.567-1.378-0.567c-0.541,0-1.003,0.189-1.387,0.567s-0.576,0.837-0.576,1.378v12.355c0,0.54,0.192,0.999,0.576,1.378
			c0.384,0.378,0.847,0.567,1.387,0.567c0.54,0,1-0.189,1.378-0.567c0.378-0.379,0.567-0.838,0.567-1.378V19.516z"/>
		<path fill="#FFFFFF" d="M43.536,31.421c0.024,1.573-0.384,2.918-1.225,4.034c-0.552,0.757-1.333,1.291-2.341,1.604
			c-0.541,0.168-1.17,0.252-1.891,0.252c-1.333,0-2.438-0.33-3.314-0.99c-0.733-0.541-1.312-1.276-1.738-2.207
			c-0.426-0.931-0.675-1.995-0.747-3.197l3.242-0.233c0.144,1.315,0.492,2.269,1.044,2.86c0.408,0.446,0.876,0.657,1.405,0.634
			c0.744-0.024,1.338-0.391,1.783-1.101c0.229-0.348,0.342-0.847,0.342-1.496c0-0.937-0.426-1.868-1.279-2.794
			c-0.672-0.637-1.681-1.592-3.025-2.866c-1.129-1.094-1.927-2.073-2.396-2.939c-0.504-0.974-0.756-2.031-0.756-3.172
			c0-2.055,0.69-3.612,2.071-4.669c0.853-0.637,1.909-0.955,3.17-0.955c1.213,0,2.251,0.27,3.116,0.811
			c0.672,0.42,1.216,1.008,1.63,1.765c0.415,0.756,0.663,1.627,0.748,2.612l-3.26,0.594c-0.096-0.924-0.361-1.645-0.793-2.162
			c-0.312-0.372-0.763-0.558-1.351-0.558c-0.625,0-1.099,0.276-1.423,0.829c-0.264,0.445-0.396,0.997-0.396,1.657
			c0,1.033,0.444,2.083,1.333,3.152c0.336,0.408,0.84,0.888,1.513,1.44c0.792,0.661,1.315,1.123,1.567,1.387
			c0.84,0.841,1.488,1.669,1.945,2.486c0.216,0.385,0.39,0.738,0.522,1.063C43.355,30.063,43.523,30.785,43.536,31.421z"/>
	</g>
</g>
</svg>
